<?xml version="1.0" standalone="no"?><!DOCTYPE svg PUBLIC "-//W3C//DTD SVG 1.1//EN" "http://www.w3.org/Graphics/SVG/1.1/DTD/svg11.dtd"><svg t="1751735172366" class="icon" viewBox="0 0 1024 1024" version="1.1" xmlns="http://www.w3.org/2000/svg" p-id="5226" xmlns:xlink="http://www.w3.org/1999/xlink" width="200" height="200"><path d="M987.456 512c0 262.5792-212.864 475.456-475.456 475.456-262.5792 0-475.456-212.864-475.456-475.456C36.544 249.4208 249.408 36.544 512 36.544c262.5792 0 475.456 212.864 475.456 475.456z" fill="#CEFFE9" p-id="5227"></path><path d="M512 0c282.7648 0 512 229.2352 512 512S794.7648 1024 512 1024 0 794.7648 0 512 229.2352 0 512 0z m0 73.1008C269.6064 73.1008 73.1008 269.6064 73.1008 512S269.6064 950.8992 512 950.8992 950.8992 754.3936 950.8992 512 754.3936 73.1008 512 73.1008z m-0.2944 109.6448a36.544 36.544 0 0 1 36.544 36.5568v60.9792h0.2176c36.992 1.1776 71.296 17.4464 95.616 44.608a133.952 133.952 0 0 1 26.496 44.672 36.544 36.544 0 1 1-68.928 24.3712 60.8512 60.8512 0 0 0-12.0448-20.3008 60.672 60.672 0 0 0-45.4144-20.3136h-75.4432a50.4576 50.4576 0 0 0-10.7776 99.7376l114.8544 25.1264a134.0544 134.0544 0 0 1 105.3824 130.944c0 72.6656-57.8176 131.8528-129.9456 134.0032v60.9664a36.544 36.544 0 1 1-73.1136 0v-60.9664a134.0544 134.0544 0 0 1-122.3168-89.2928 36.544 36.544 0 0 1 68.928-24.3584 60.9536 60.9536 0 0 0 57.4592 40.6144h64.9728a60.9536 60.9536 0 0 0 13.0176-120.4992l-114.8672-25.1264a123.5584 123.5584 0 0 1 26.4064-244.2496h6.4v-60.928a36.544 36.544 0 0 1 36.5568-36.544z" fill="#1AB370" p-id="5228"></path></svg>